<svg class="logo-one" xmlns:xlink="http://www.w3.org/1999/xlink" viewBox="0 0 41900 11700" style="shape-rendering:geometricPrecision; text-rendering:geometricPrecision; image-rendering:optimizeQuality; fill-rule:evenodd; clip-rule:evenodd" version="1.1" height="130" width="500" xml:space="preserve" xmlns="http://www.w3.org/2000/svg" align="left" original-font-size="14px" original-border-color="rgb(14, 13, 12)" original-background-color="rgba(0, 0, 0, 0)" original-background-image="none" original-color="rgb(14, 13, 12)" original-box-shadow="none" original-text-shadow="none" original-font-family="&quot;Open Sans&quot;, sans-serif" original-letter-spacing="0" original-line-height="21px">
 <defs original-font-size="14px" original-border-color="rgb(14, 13, 12)" original-background-color="rgba(0, 0, 0, 0)" original-background-image="none" original-color="rgb(14, 13, 12)" original-box-shadow="none" original-text-shadow="none" original-font-family="&quot;Open Sans&quot;, sans-serif" original-letter-spacing="0" original-line-height="21px">
  <style type="text/css" original-font-size="14px" original-border-color="rgb(14, 13, 12)" original-background-color="rgba(0, 0, 0, 0)" original-background-image="none" original-color="rgb(14, 13, 12)" original-box-shadow="none" original-text-shadow="none" original-font-family="&quot;Open Sans&quot;, sans-serif" original-letter-spacing="0" original-line-height="21px">
   
    .fil2 {fill:#FEFEFE}
    .fil1 {fill:#2B2A29}
    .fil0 {fill:#EF7F1A}
    .fil3 {fill:#FEFEFE;fill-rule:nonzero}
    .fil5 {fill:#2B2A29;fill-rule:nonzero}
    .fil4 {fill:#F5A55E;fill-rule:nonzero}
   
  </style>
 </defs>
 <g id="Слой_x0020_1" original-font-size="14px" original-border-color="rgb(14, 13, 12)" original-background-color="rgba(0, 0, 0, 0)" original-background-image="none" original-color="rgb(14, 13, 12)" original-box-shadow="none" original-text-shadow="none" original-font-family="&quot;Open Sans&quot;, sans-serif" original-letter-spacing="0" original-line-height="21px">
  <metadata id="CorelCorpID_0Corel-Layer" original-font-size="14px" original-border-color="rgb(14, 13, 12)" original-background-color="rgba(0, 0, 0, 0)" original-background-image="none" original-color="rgb(14, 13, 12)" original-box-shadow="none" original-text-shadow="none" original-font-family="&quot;Open Sans&quot;, sans-serif" original-letter-spacing="0" original-line-height="21px"></metadata>
  <g id="_2630276064656" original-font-size="14px" original-border-color="rgb(14, 13, 12)" original-background-color="rgba(0, 0, 0, 0)" original-background-image="none" original-color="rgb(14, 13, 12)" original-box-shadow="none" original-text-shadow="none" original-font-family="&quot;Open Sans&quot;, sans-serif" original-letter-spacing="0" original-line-height="21px">
   <path class="fil0" d="M3254.3 8393.57c47.95,-385.71 340.9,-902.1 1180.39,-1077.11 2427.41,-506.12 4139.48,-612.75 5580.04,-294.06 498.97,110.4 982.98,480.34 1280.58,970.92 8.1,-288.33 57.75,-618.82 -16.34,-868.84 -402.62,-1104.08 -5751.46,-326.11 -7162.2,156.5 -777.26,265.89 -903.53,757.37 -881.56,1112.59l19.09 0z" original-font-size="14px" original-border-color="rgb(14, 13, 12)" original-background-color="rgba(0, 0, 0, 0)" original-background-image="none" original-color="rgb(14, 13, 12)" original-box-shadow="none" original-text-shadow="none" original-font-family="&quot;Open Sans&quot;, sans-serif" original-letter-spacing="0" original-line-height="21px"></path>
   <path class="fil0" d="M4178.14 8393.57c238.83,-50.5 499.62,-81.33 738.78,-110.64 2237.58,-274.39 3531.01,-423.57 4877.79,-184.71 266.64,47.27 529.21,150.82 764.32,295.35l611.39 0c-4.54,-73.99 -16.24,-144.58 -40,-208.9 -373.91,-792.6 -3834.64,-438.83 -6288.09,-39.18 -365.49,59.55 -669.26,148.75 -902.35,248.08l238.16 0z" original-font-size="14px" original-border-color="rgb(14, 13, 12)" original-background-color="rgba(0, 0, 0, 0)" original-background-image="none" original-color="rgb(14, 13, 12)" original-box-shadow="none" original-text-shadow="none" original-font-family="&quot;Open Sans&quot;, sans-serif" original-letter-spacing="0" original-line-height="21px"></path>
   <path class="fil0" d="M2934.33 8393.57c-205.02,-632.38 -202,-1789.71 1037.94,-2203.05 2664.97,-888.43 4655.7,-1235.81 6237.16,-672.61 547.77,195.05 948.6,960.52 1275.31,1827.43 8.87,-509.49 63.37,-1093.5 -17.94,-1535.36 -442,-1951.07 -6254.13,-466.36 -7843.53,317.82 -1150.41,567.62 -911.23,1681.29 -678.39,2265.77l-10.55 0z" original-font-size="14px" original-border-color="rgb(14, 13, 12)" original-background-color="rgba(0, 0, 0, 0)" original-background-image="none" original-color="rgb(14, 13, 12)" original-box-shadow="none" original-text-shadow="none" original-font-family="&quot;Open Sans&quot;, sans-serif" original-letter-spacing="0" original-line-height="21px"></path>
   <path class="fil0" d="M5749.05 3639.74c-2882.78,1164.25 -4328.21,2424.94 -4168.24,3224.79 134.83,674.07 765.22,1210.75 1216.87,1529.04l-50.55 0c-539.73,-368.44 -1064.02,-857.45 -1199.63,-1183.71 -898.38,-1104.37 1117.37,-2440.08 2962.3,-3300.05 1560.79,-840.56 6858.2,-2791.46 7249.15,-652.8 27.04,311.12 -41.52,700.57 -65.24,1071.54 -119.24,640.95 13.02,617.29 -181.38,-20.99 -251.88,-622.59 -566.44,-1080.64 -926.31,-1239.46 -1196.51,-528.03 -2840.79,-37.83 -4836.97,571.64z" original-font-size="14px" original-border-color="rgb(14, 13, 12)" original-background-color="rgba(0, 0, 0, 0)" original-background-image="none" original-color="rgb(14, 13, 12)" original-box-shadow="none" original-text-shadow="none" original-font-family="&quot;Open Sans&quot;, sans-serif" original-letter-spacing="0" original-line-height="21px"></path>
   <path class="fil0" d="M9656.47 8249.14c-410.15,275.91 -1211.12,165.12 -1760.22,-636.67 -1180.23,-1723.44 -1399.91,-3332.99 -1320.86,-4578.77 27.37,-431.42 1007.1,-947.81 1560.03,-1358.7 -366.08,97.87 -1596.33,310.61 -1895.59,459.15 -1304.41,715.09 797.26,4764.83 1682.97,5740.63 641.08,706.3 1361.29,652.82 1731.5,366.82l2.17 7.54z" original-font-size="14px" original-border-color="rgb(14, 13, 12)" original-background-color="rgba(0, 0, 0, 0)" original-background-image="none" original-color="rgb(14, 13, 12)" original-box-shadow="none" original-text-shadow="none" original-font-family="&quot;Open Sans&quot;, sans-serif" original-letter-spacing="0" original-line-height="21px"></path>
  </g>
  <path class="fil1" d="M6190.93 2472.25c-586.75,529.69 -1744.08,1418.79 -2163.87,1875.39 -312.79,-148.73 -544.1,-342.25 -748.3,-620.84 883.86,-475.71 1908.13,-913.05 2912.17,-1254.55zm-2480.83 2217.34c-19.42,19.94 -35.36,39.51 -47.33,58.15 -1054.97,611.79 -2575.44,1748.95 -1993.48,2834.01 -362.29,-356.5 -724.64,-798.08 -866.99,-1265.47 -217.42,-713.82 746.9,-1605.4 2154.3,-2410.67 368.44,141 599.92,400.82 753.5,783.98zm7729.96 -243.32c30.96,566.76 138.11,1425.91 51.38,1960.27 -254.55,-18.84 -900.1,-468.39 -899.73,-989.88 0.38,-523.67 483.49,-914.42 848.35,-970.39zm116.3 1759.79c24.33,-426.11 87.7,-1482.53 142.33,-1813.34 -7.85,7.84 -15.97,14.86 -24.32,20.96l6.77 -253.55 91.18 -193.05c8.1,-613.87 108.3,-1317.52 34.09,-1849.88 -422.17,-2460.42 -6193.14,-216.01 -7878.62,751 -1992.26,989.36 -4169.02,2526.04 -3198.91,3796.56 270.89,378.38 1184.44,1340.78 1857.15,1721.04 -75.01,-89.48 -473.44,-374.19 -881.08,-769.24 -391.63,-1091.58 1309.19,-2360.27 2011.77,-2269.44 196.53,136.9 -68.59,325.46 -167.37,733.6 -40.38,32.19 -76.68,69.32 -107.94,110.45 -34.84,45.8 -63.32,96.3 -84.19,150.27 -282.73,405.18 -1421.79,917.62 -594.55,2052.13l26.79 0c-414.62,-765.72 243.47,-1479.14 790.7,-1339.56 62.1,43.36 132.54,75.79 208.35,94.46 421.44,322.86 951.2,850.95 1265.52,1245.1l456.14 0c-560.57,-160.77 -1148.65,-776.61 -1276.76,-1300.98 7.85,-4.19 15.59,-8.54 23.26,-13.04 35.31,-20.76 68.35,-44.85 98.63,-71.74 546.78,-51.97 1614.89,-385.53 2196.6,83.71 7.18,36.08 16.97,71.36 29.19,105.7 7.82,21.99 16.57,43.45 26.19,64.37 -59.8,686.95 -293.26,1023.96 -592.61,1131.98l607.62 0c114.42,-319.24 383.11,-615.89 620.34,-686.98 24.64,2.37 49.3,3.6 73.87,3.6 202.9,0 388.55,-77.27 527.76,-203.53 72.59,-65.81 132.38,-144.87 175.36,-233.31 144.33,-84 481.54,-70.71 677.41,141.43 33.39,111.47 97.9,209.37 183.69,284.09 109.67,95.5 254.09,153.62 411.97,153.62 27.43,0 56.09,-2.25 85.68,-6.57 298.7,98.2 386.58,342.7 599.82,510.77l46.78 36.88 791.56 0c-41.41,-50.62 -85.46,-98.75 -124.89,-141.95l-79.19 -86.84c-408.12,-230.13 -470.16,-271.11 -738.35,-710.12 25.86,-67.66 40.05,-139.5 40.05,-213.01 0,-118 -35.08,-229.12 -95.78,-323.97 -13.89,-21.69 -29.11,-42.48 -45.6,-62.22 -62.24,-483.43 268.79,-767.46 482.36,-850.15 504.4,190.81 866.04,530.61 1002.38,1095.86 -3.73,11.86 -7.18,23.83 -10.32,35.95 -16.25,62.47 -24.92,125.86 -24.92,188.88 0,85.04 14.3,166.84 40.58,243.26 -62.34,277.61 -128.28,552.4 -194.77,824.31l682.43 0 -194.15 -2187.51zm108.12 -1785.66c-29.61,18.69 -62.12,26.26 -96.95,19.99 110.77,-457.97 14.54,-547.62 96.95,-19.99zm-6931.77 -75.01c16.47,-526.66 1051.83,-1277.16 1820.29,-1657 82.76,49.55 180.24,78.29 284.06,78.29 26.71,0 53.87,-2.25 81.29,-6.57 409.37,78.16 576.36,316.91 718.21,727.23 -1738.21,739.33 -2227.69,768.77 -2903.85,858.05zm6765.1 -1151.33c-280.03,-643.22 -634.53,-1109.34 -996.4,-1288.23 -3.88,117.67 -55.62,223.59 -137.33,300.63 -66.65,62.79 -153.28,105.89 -249.18,119.16 -555.92,262.2 -892.35,953.93 -816.54,1137.99 386.38,506.74 1347.35,48.67 1599.23,-124.97 50.22,-41.5 106.54,-76.21 167.31,-102.52 87.26,-37.78 182.11,-58.77 279.94,-58.77 52.5,0 103.7,5.77 152.97,16.71zm-1872.41 -1441.15c-611.42,-0.6 -1402.88,133.56 -2261.5,362.39 10.24,40.26 15.67,82.29 15.67,125.57 0,26.03 -2.18,52.14 -6.35,78.16 443.2,741.25 879.93,818.76 1163.17,724.36 314.79,-104.9 961.07,-397.08 1069.99,-1094.05 -2.72,-19.09 -4.15,-38.36 -4.15,-57.68 0,-48.52 8.12,-95.15 23.17,-138.75zm-787.71 5073.79c94.83,-100.92 221.69,-167.29 358.62,-188.5 198.03,-114.07 531.03,-225.52 640.28,-1009.62 19.49,-226.74 -679.96,-1007.48 -1022.84,-1016.77 -113.49,46.1 -215.64,60.62 -338.36,60.62 -406.97,467.19 -709.04,1114.99 -743.57,1628.76 67.46,41.73 127.86,93.25 178.88,152.5 59.92,69.54 107.4,149.7 139.13,237.23 243.25,148.38 528.39,209.45 787.86,135.78zm-4408.35 -1549.25c-99.05,237.01 -473.82,521.42 -300.8,697.65 94.88,29.89 179.83,81.51 248.57,148.78 81.16,79.48 140.11,180.51 166.9,293.58 311.24,271.39 1263.74,167.89 2224.54,-12.85 31.06,-30.18 64.69,-57.84 100.47,-82.53 40.28,-27.76 83.16,-51.9 128.09,-71.89 371.64,-348.48 902.65,-896.95 762.14,-2010.85l-2.15 -3.97c-831.78,-243.78 -2657,348.78 -3327.76,1042.08zm6274.07 -1152.65c-153.1,-100.12 -974.29,-362.17 -1324.77,89.36 -167.91,184.05 689.41,887.38 839.86,830.86 310.74,-151.95 529.24,-475.79 522.24,-845.28 -14.24,-24.34 -26.24,-49.05 -37.33,-74.94z" original-font-size="14px" original-border-color="rgb(14, 13, 12)" original-background-color="rgba(0, 0, 0, 0)" original-background-image="none" original-color="rgb(14, 13, 12)" original-box-shadow="none" original-text-shadow="none" original-font-family="&quot;Open Sans&quot;, sans-serif" original-letter-spacing="0" original-line-height="21px"></path>
  <path class="fil0" d="M7441.81 7237.09c174.09,0 315.22,-141.12 315.22,-315.2 0,-174.11 -141.13,-315.23 -315.22,-315.23 -174.09,0 -315.22,141.12 -315.22,315.23 0,174.08 141.13,315.2 315.22,315.2z" original-font-size="14px" original-border-color="rgb(14, 13, 12)" original-background-color="rgba(0, 0, 0, 0)" original-background-image="none" original-color="rgb(14, 13, 12)" original-box-shadow="none" original-text-shadow="none" original-font-family="&quot;Open Sans&quot;, sans-serif" original-letter-spacing="0" original-line-height="21px"></path>
  <path class="fil0" d="M10013.12 2100.51c125.78,58.34 276.82,-11.57 337.39,-156.13 60.55,-144.55 7.65,-309.04 -118.13,-367.38 -125.81,-58.33 -276.85,11.57 -337.4,156.14 -60.54,144.54 -7.67,309.03 118.14,367.37z" original-font-size="14px" original-border-color="rgb(14, 13, 12)" original-background-color="rgba(0, 0, 0, 0)" original-background-image="none" original-color="rgb(14, 13, 12)" original-box-shadow="none" original-text-shadow="none" original-font-family="&quot;Open Sans&quot;, sans-serif" original-letter-spacing="0" original-line-height="21px"></path>
  <path class="fil0" d="M8676.51 4021.38c204.53,0 370.34,-165.8 370.34,-370.34 0,-204.54 -165.81,-370.35 -370.34,-370.35 -204.54,0 -370.35,165.81 -370.35,370.35 0,204.54 165.81,370.34 370.35,370.34z" original-font-size="14px" original-border-color="rgb(14, 13, 12)" original-background-color="rgba(0, 0, 0, 0)" original-background-image="none" original-color="rgb(14, 13, 12)" original-box-shadow="none" original-text-shadow="none" original-font-family="&quot;Open Sans&quot;, sans-serif" original-letter-spacing="0" original-line-height="21px"></path>
  <path class="fil0" d="M3865.1 6820.58c174.09,0 315.22,-141.13 315.22,-315.22 0,-174.09 -141.13,-315.22 -315.22,-315.22 -174.1,0 -315.22,141.13 -315.22,315.22 0,174.09 141.12,315.22 315.22,315.22z" original-font-size="14px" original-border-color="rgb(14, 13, 12)" original-background-color="rgba(0, 0, 0, 0)" original-background-image="none" original-color="rgb(14, 13, 12)" original-box-shadow="none" original-text-shadow="none" original-font-family="&quot;Open Sans&quot;, sans-serif" original-letter-spacing="0" original-line-height="21px"></path>
  <path class="fil2" d="M11589.86 4445.36c149.86,0 271.35,-242.95 271.35,-542.66 0,-299.71 -121.49,-542.66 -271.35,-542.66 -149.85,0 -271.33,242.95 -271.33,542.66 0,299.71 121.48,542.66 271.33,542.66z" original-font-size="14px" original-border-color="rgb(14, 13, 12)" original-background-color="rgba(0, 0, 0, 0)" original-background-image="none" original-color="rgb(14, 13, 12)" original-box-shadow="none" original-text-shadow="none" original-font-family="&quot;Open Sans&quot;, sans-serif" original-letter-spacing="0" original-line-height="21px"></path>
  <ellipse class="fil2" cx="11655.91" cy="6711.02" rx="145.05" ry="290.1" original-font-size="14px" original-border-color="rgb(14, 13, 12)" original-background-color="rgba(0, 0, 0, 0)" original-background-image="none" original-color="rgb(14, 13, 12)" original-box-shadow="none" original-text-shadow="none" original-font-family="&quot;Open Sans&quot;, sans-serif" original-letter-spacing="0" original-line-height="21px"></ellipse>
  <path class="fil0" d="M6820.1 2458.44c134.25,0 243.09,-108.83 243.09,-243.09 0,-134.25 -108.84,-243.07 -243.09,-243.07 -134.26,0 -243.09,108.82 -243.09,243.07 0,134.26 108.83,243.09 243.09,243.09z" original-font-size="14px" original-border-color="rgb(14, 13, 12)" original-background-color="rgba(0, 0, 0, 0)" original-background-image="none" original-color="rgb(14, 13, 12)" original-box-shadow="none" original-text-shadow="none" original-font-family="&quot;Open Sans&quot;, sans-serif" original-letter-spacing="0" original-line-height="21px"></path>
  <path class="fil2" d="M10280.72 5774.22c118.61,0 214.77,-108.83 214.77,-243.06 0,-134.26 -96.16,-243.09 -214.77,-243.09 -118.61,0 -214.77,108.83 -214.77,243.09 0,134.23 96.16,243.06 214.77,243.06z" original-font-size="14px" original-border-color="rgb(14, 13, 12)" original-background-color="rgba(0, 0, 0, 0)" original-background-image="none" original-color="rgb(14, 13, 12)" original-box-shadow="none" original-text-shadow="none" original-font-family="&quot;Open Sans&quot;, sans-serif" original-letter-spacing="0" original-line-height="21px"></path>
  <path class="fil0" d="M9340.73 7497.46c119.59,0 216.56,-96.95 216.56,-216.54 0,-119.61 -96.97,-216.56 -216.56,-216.56 -119.61,0 -216.56,96.95 -216.56,216.56 0,119.59 96.95,216.54 216.56,216.54z" original-font-size="14px" original-border-color="rgb(14, 13, 12)" original-background-color="rgba(0, 0, 0, 0)" original-background-image="none" original-color="rgb(14, 13, 12)" original-box-shadow="none" original-text-shadow="none" original-font-family="&quot;Open Sans&quot;, sans-serif" original-letter-spacing="0" original-line-height="21px"></path>  
</svg>