<svg xmlns="http://www.w3.org/2000/svg" viewBox="0 0 98.96 90.5"><defs><style>.cls-1{fill:none;stroke:#000;stroke-miterlimit:10;stroke-width:2px;}</style></defs><title>logover1</title><g id="Слой_1" data-name="Слой 1"><path d="M47.62,24.38l1.31.1a25.33,25.33,0,0,1,0,50.51l-1.31.1H39.21L37.89,75a25.33,25.33,0,0,1,0-50.51l1.32-.1h8.41m1.47-2H37.74v.11a27.33,27.33,0,0,0,0,54.5v.1H49.09V77a27.33,27.33,0,0,0,0-54.5v-.11Z" transform="translate(-0.55 -5.5)"/><path d="M19.29,7.5A24.14,24.14,0,0,1,39.1,18.23H36.66a1.94,1.94,0,0,0-.8.17,29.3,29.3,0,0,0-17.79,8.4,48.46,48.46,0,0,1-.45-6.57A49.27,49.27,0,0,1,19.29,7.5m-.16-2c-.46,0-.91,0-1.37.07a51.15,51.15,0,0,0-.93,25.7A27.31,27.31,0,0,1,36.66,20.34v-.11h5.87A26,26,0,0,0,19.13,5.5Z" transform="translate(-0.55 -5.5)"/><path d="M71.07,12.57a23.88,23.88,0,0,1,5.05.54,48.82,48.82,0,0,1-3,19.1,29.39,29.39,0,0,0-15.55-12,2,2,0,0,0-.75-.34l-2.38-.52a24.15,24.15,0,0,1,16.61-6.73m0-2a26,26,0,0,0-20.39,9.94l5.73,1.27,0,.1a27.33,27.33,0,0,1,17,15A50.82,50.82,0,0,0,77,26.33,51.24,51.24,0,0,0,78,11.55c-.44-.12-.86-.26-1.31-.36a26.14,26.14,0,0,0-5.65-.62Z" transform="translate(-0.55 -5.5)"/></g><g id="Слой_3" data-name="Слой 3"><line class="cls-1" x1="21.97" y1="38.75" x2="2.03" y2="32.43"/><line class="cls-1" x1="21.44" y1="44.11" x2="1.07" y2="42.08"/><line class="cls-1" x1="20.9" y1="49.47" x2="0.11" y2="51.73"/><line class="cls-1" x1="64.13" y1="41.27" x2="84.6" y2="36.96"/><path class="cls-1" d="M42.12,60.87c-.78,2.8-3.42,3.89-6.58,3.94a7,7,0,0,0,13.92.91c-3-.44-5.45-2-6-4.76Z" transform="translate(-0.55 -5.5)"/><polyline class="cls-1" points="45.07 58.94 45.18 60.01 45.75 59.51"/><polyline class="cls-1" points="39.33 58.57 39.09 59.61 38.59 59.04"/><polyline class="cls-1" points="27.15 41.12 33.74 33.23 39.44 42.88"/><polyline class="cls-1" points="59.69 43.52 54.46 34.67 47.27 43.28"/></g><g id="Слой_2" data-name="Слой 2"><path d="M87.43,52.29l1.87,4.06.44.95,1,.18,4.4.77-3.28,3-.77.72.15,1,.63,4.42L88,65.26l-.92-.51-.94.46-4,2L83,62.8l.2-1L82.49,61l-3.11-3.2,4.43-.53,1-.12.49-.93,2.08-4m.13-4.51-4,7.53-8.46,1,5.94,6.11-1.67,8.35L87,67l7.43,4.16-1.21-8.43L99.51,57l-8.39-1.46-3.56-7.73Z" transform="translate(-0.55 -5.5)"/><polygon points="83.29 45.25 64.58 45.25 64.58 47.41 82.17 47.41 83.29 45.25"/><polygon points="73.16 52.65 63.73 50.66 63.28 52.77 75.81 55.41 73.16 52.65"/><path d="M83.74,72.5l.21.12A41,41,0,0,1,20.84,83.78a42.5,42.5,0,0,0,53.11-9l-.55,2.76L77,75.79l6.7-3.29m-5.93-6.87A40.4,40.4,0,0,1,7.62,68.25a43.1,43.1,0,0,0,79,3.57L83.8,70.24,76.16,74l1.66-8.36Z" transform="translate(-0.55 -5.5)"/></g></svg>