<svg xmlns="http://www.w3.org/2000/svg" viewBox="0 0 96.45 88.21"><defs><style>.cls-1{fill:#fff;}</style></defs><title>logover2Purple</title><g id="Слой_1" data-name="Слой 1"><path class="cls-1" d="M73.47,44.62A26.65,26.65,0,0,0,48.86,18.06V18H37.8v.1a26.64,26.64,0,0,0,0,53.12v.1H48.86v-.1A26.65,26.65,0,0,0,73.47,44.62Z" transform="translate(-1.55 -1.5)"/><path class="cls-1" d="M36.75,16v-.1h5.72A25.29,25.29,0,0,0,19.66,1.5c-.45,0-.89,0-1.34.07a49.88,49.88,0,0,0-.9,25A26.64,26.64,0,0,1,36.75,16Z" transform="translate(-1.55 -1.5)"/><path class="cls-1" d="M56,17.36l0,.1A26.69,26.69,0,0,1,72.54,32.05,50.07,50.07,0,0,0,77.07,7.4c-.43-.12-.85-.26-1.29-.35a25.27,25.27,0,0,0-25.37,9.08Z" transform="translate(-1.55 -1.5)"/></g><g id="Слой_3" data-name="Слой 3"><rect class="cls-1" x="12.27" y="25.99" width="1.95" height="20.39" transform="translate(-26.8 36.39) rotate(-72.43)"/><rect class="cls-1" x="11.54" y="33.53" width="1.95" height="19.95" transform="translate(-33.56 50.15) rotate(-84.32)"/><rect class="cls-1" x="1.59" y="49.84" width="20.39" height="1.95" transform="translate(-6.96 0.07) rotate(-6.19)"/><rect class="cls-1" x="63.83" y="38.65" width="20.39" height="1.95" transform="translate(-8.12 14.6) rotate(-11.89)"/></g><g id="Слой_2" data-name="Слой 2"><polygon class="cls-1" points="84.8 41.2 88.27 48.75 96.45 50.16 90.35 55.79 91.53 64.01 84.29 59.95 76.84 63.61 78.47 55.47 72.68 49.52 80.93 48.55 84.8 41.2"/><polygon class="cls-1" points="81.18 44.1 62.95 44.1 62.95 46.2 80.08 46.2 81.18 44.1"/><polygon class="cls-1" points="71.31 51.31 62.11 49.38 61.68 51.43 73.89 54 71.31 51.31"/><path class="cls-1" d="M82.69,64.6l-7.45,3.66,1.63-8.14,0,0A39.37,39.37,0,0,1,8.44,62.66a42,42,0,0,0,77,3.48Z" transform="translate(-1.55 -1.5)"/></g></svg>