<?xml version="1.0" encoding="utf-8"?>
<!-- Generator: Adobe Illustrator 24.0.1, SVG Export Plug-In . SVG Version: 6.00 Build 0)  -->
<svg version="1.1" id="Слой_1" xmlns="http://www.w3.org/2000/svg" xmlns:xlink="http://www.w3.org/1999/xlink" x="0px" y="0px"
     viewBox="0 0 100 100" style="enable-background:new 0 0 100 100;" xml:space="preserve">
<style type="text/css">
    .st0{fill:#FFFFFF;}
</style>
<title>logover2Purple</title>
<path class="st0" d="M74.6,48.9c0-14.4-11.1-26.4-25.5-27.5v-0.1H37.7v0.1c-15.2,1.2-26.5,14.4-25.3,29.6
    c1.1,13.5,11.8,24.3,25.3,25.3v0.1h11.4v-0.1C63.5,75.3,74.6,63.3,74.6,48.9z"/>
<path class="st0" d="M35.5,18.1V18h5.9C37,8.9,27.9,3.1,17.8,3.1c-0.5,0-0.9,0-1.4,0.1c-2.5,8.4-2.8,17.3-0.9,25.9
    C20.2,22.7,27.5,18.7,35.5,18.1z"/>
<path class="st0" d="M57.7,19.5v0.1c7.6,2.3,13.9,7.8,17.1,15.1c3.7-8,5.3-16.7,4.7-25.5c-0.4-0.1-0.9-0.3-1.3-0.4
    c-9.8-2.2-20,1.5-26.3,9.4L57.7,19.5z"/>
<g id="Слой_3">
    <rect x="11.3" y="29.6" transform="matrix(0.3019 -0.9533 0.9533 0.3019 -29.6965 39.7552)" class="st0" width="2" height="21.1"/>
    
        <rect x="10.5" y="37.4" transform="matrix(9.897241e-02 -0.9951 0.9951 9.897241e-02 -37.0874 54.4904)" class="st0" width="2" height="20.6"/>
    <rect x="0.2" y="54.3" transform="matrix(0.9942 -0.1078 0.1078 0.9942 -5.8994 1.4853)" class="st0" width="21.1" height="2"/>
    <rect x="64.6" y="42.7" transform="matrix(0.9785 -0.206 0.206 0.9785 -7.3925 16.4309)" class="st0" width="21.1" height="2"/>
</g>
<g id="Слой_2_1_">
    <polygon class="st0" points="87.9,46.9 91.5,54.7 100,56.2 93.7,62 94.9,70.5 87.4,66.3 79.7,70.1 81.4,61.7 75.4,55.5 83.9,54.5     
        "/>
    <polygon class="st0" points="84.2,49.9 65.3,49.9 65.3,52.1 83.1,52.1     "/>
    <polygon class="st0" points="74,57.4 64.5,55.4 64,57.5 76.7,60.1     "/>
    <path class="st0" d="M84.2,69.6l-7.7,3.8l1.7-8.4l0,0c-10.4,20-35,27.7-54.9,17.4c-6.5-3.4-12-8.5-15.9-14.7
        C15.9,90,41,101.2,63.4,92.7C73.7,88.8,82.2,81.1,87,71.2L84.2,69.6z"/>
</g>
</svg>
