<svg id="Слой_1" data-name="Слой 1" xmlns="http://www.w3.org/2000/svg" viewBox="0 0 92.5 88.35"><title>checkbox</title><path d="M24.89,11.76V30.54H5V10.65H20.68c.24-.33.49-.67.75-1s.57-.68.86-1H4a1,1,0,0,0-1,1V31.54a1,1,0,0,0,1,1H25.89a1,1,0,0,0,1-1V9.65a.43.43,0,0,0,0-.05C26.18,10.29,25.52,11,24.89,11.76Z" transform="translate(-3 -5)"/><path d="M25.89,93.35H4a1,1,0,0,1-1-1V70.46a1,1,0,0,1,1-1H25.89a1,1,0,0,1,1,1V92.35A1,1,0,0,1,25.89,93.35ZM5,91.35H24.89V71.46H5Z" transform="translate(-3 -5)"/><path d="M90,26.09H39.27a5.5,5.5,0,0,1,0-11H90a5.5,5.5,0,0,1,0,11Z" transform="translate(-3 -5)"/><path d="M90,56.5H39.27a5.5,5.5,0,0,1,0-11H90a5.5,5.5,0,0,1,0,11Z" transform="translate(-3 -5)"/><path d="M90,86.91H39.27a5.5,5.5,0,0,1,0-11H90a5.5,5.5,0,0,1,0,11Z" transform="translate(-3 -5)"/><path d="M14.91,28.3a1.63,1.63,0,0,1-.36-.05c-1.08-.29-1.57-2.69-1.77-4.1-.68-4.79-2.35-7.84-4.95-9.06a1,1,0,0,1,.85-1.81c3.25,1.53,5.3,5.09,6.08,10.59,0,.23.07.45.11.67a45.51,45.51,0,0,1,7.34-14.26,34.58,34.58,0,0,1,5.06-5.06,1,1,0,1,1,1.26,1.56,31.5,31.5,0,0,0-4.76,4.76,44,44,0,0,0-7.14,14C16,27.36,15.72,28.3,14.91,28.3Z" transform="translate(-3 -5)"/><path d="M24.89,42V61H5V41.05H20.53c.3-.41.61-.82.93-1.22l.66-.78H4a1,1,0,0,0-1,1V62a1,1,0,0,0,1,1H25.89a1,1,0,0,0,1-1V40.05a1.43,1.43,0,0,0,0-.22C26.16,40.51,25.51,41.23,24.89,42Z" transform="translate(-3 -5)"/><path d="M14.94,58.48a1.23,1.23,0,0,1-.36-.06c-1.08-.28-1.57-2.69-1.77-4.1-.68-4.79-2.35-7.84-4.95-9.06a1,1,0,0,1,.85-1.81C12,45,14,48.54,14.79,54c0,.24.07.46.11.67a45.38,45.38,0,0,1,7.34-14.25A33.62,33.62,0,0,1,27.3,35.4,1,1,0,1,1,28.56,37a32,32,0,0,0-4.76,4.76,43.59,43.59,0,0,0-7.14,14C16.06,57.54,15.75,58.48,14.94,58.48Z" transform="translate(-3 -5)"/></svg>