<svg id="Слой_1" data-name="Слой 1" xmlns="http://www.w3.org/2000/svg" viewBox="0 0 98.96 90.51"><defs><style>.cls-1{fill:#ff1493;}.cls-2{fill:none;stroke:#ff1493;stroke-miterlimit:10;stroke-width:2px;}</style></defs><title>logover1yellow</title><g id="Слой_1-2" data-name="Слой 1"><path class="cls-1" d="M47.07,18.88l1.31.1a25.33,25.33,0,0,1,0,50.51l-1.31.1H38.66l-1.32-.09a25.33,25.33,0,0,1,0-50.51l1.32-.1h8.41m1.47-2H37.19V17a27.33,27.33,0,0,0,0,54.5v.1H48.54v-.1a27.33,27.33,0,0,0,0-54.5Z" transform="translate(0)"/><path class="cls-1" d="M18.74,2A24.15,24.15,0,0,1,38.55,12.73H36.11a2,2,0,0,0-.8.17,29.29,29.29,0,0,0-17.79,8.4,48.14,48.14,0,0,1-.45-6.57A49.27,49.27,0,0,1,18.74,2m-.16-2a9,9,0,0,0-1.37.07,51.23,51.23,0,0,0-.93,25.7A27.31,27.31,0,0,1,36.11,14.84v-.11H42A26,26,0,0,0,18.58,0Z" transform="translate(0)"/><path class="cls-1" d="M70.52,7.07a23.81,23.81,0,0,1,5,.54,48.94,48.94,0,0,1-3,19.1A29.39,29.39,0,0,0,57,14.71a2,2,0,0,0-.75-.34l-2.38-.52A24.17,24.17,0,0,1,70.5,7.12m0-2a26,26,0,0,0-20.39,9.94l5.73,1.27v.1a27.32,27.32,0,0,1,17,15,50.79,50.79,0,0,0,3.61-10.6,51.3,51.3,0,0,0,1-14.78c-.44-.12-.86-.26-1.31-.36a26.22,26.22,0,0,0-5.65-.62Z" transform="translate(0)"/></g><g id="Слой_3" data-name="Слой 3"><line class="cls-2" x1="21.97" y1="38.75" x2="2.03" y2="32.43"/><line class="cls-2" x1="21.44" y1="44.11" x2="1.07" y2="42.08"/><line class="cls-2" x1="20.9" y1="49.47" x2="0.11" y2="51.73"/><line class="cls-2" x1="64.13" y1="41.27" x2="84.6" y2="36.96"/><path class="cls-2" d="M41.57,55.37c-.78,2.8-3.42,3.89-6.58,3.94a7,7,0,0,0,13.92.91c-3-.44-5.45-2-6-4.76Z" transform="translate(0)"/><polyline class="cls-2" points="45.07 58.94 45.18 60.01 45.75 59.51"/><polyline class="cls-2" points="39.33 58.57 39.09 59.61 38.59 59.04"/><polyline class="cls-2" points="27.15 41.12 33.74 33.23 39.44 42.88"/><polyline class="cls-2" points="59.69 43.52 54.46 34.67 47.27 43.28"/></g><path class="cls-1" d="M86.88,46.79l1.87,4.06.44.95,1,.18,4.4.77-3.28,3-.77.72.15,1,.63,4.42-3.87-2.13-.92-.51-.94.46-4,2,.86-4.41.2-1-.71-.8-3.11-3.2,4.43-.53,1-.12.49-.93,2.08-4M87,42.21l-4,7.53-8.46,1,5.94,6.11L78.77,65.2l7.68-3.7,7.43,4.16-1.21-8.43L99,51.5,90.57,50,87,42.31Z" transform="translate(0)"/><polygon class="cls-1" points="83.29 45.25 64.58 45.25 64.58 47.41 82.17 47.41 83.29 45.25"/><polygon class="cls-1" points="73.16 52.65 63.73 50.66 63.28 52.77 75.81 55.41 73.16 52.65"/><path class="cls-1" d="M83.19,67l.21.12A41,41,0,0,1,20.29,78.28a42.5,42.5,0,0,0,53.11-9L72.85,72l3.6-1.75L83.15,67m-5.93-6.87A40.4,40.4,0,0,1,7.07,62.75a43.1,43.1,0,0,0,79,3.57l-2.82-1.58L75.61,68.5l1.66-8.36Z" transform="translate(0)"/></svg>